<?xml version="1.0" encoding="UTF-8"?>
<svg width="25px" height="24px" viewBox="0 0 25 24" version="1.1" xmlns="http://www.w3.org/2000/svg" xmlns:xlink="http://www.w3.org/1999/xlink">
    <!-- Generator: Sketch 54.1 (76490) - https://sketchapp.com -->
    <title>nav_ic_unfollow_black</title>
    <desc>Created with Sketch.</desc>
    <g id="行情" stroke="none" stroke-width="1" fill="none" fill-rule="evenodd">
        <g id="币种_行情内页" transform="translate(-303.000000, -80.000000)" stroke="#606972" stroke-width="1.5">
            <g id="nav" transform="translate(0.000000, 70.000000)">
                <g id="navbar/backshare">
                    <g id="nav_ic_unfollow_black" transform="translate(303.000000, 10.000000)">
                        <path d="M12,17.758001 L7.61809888,20.0560221 C7.12899338,20.312526 6.52455753,20.1239651 6.26805362,19.6348596 C6.1662356,19.4407115 6.13103825,19.2184842 6.16787787,19.0023749 L6.99934389,14.1248117 L3.45971404,10.6675036 C3.06462242,10.2816007 3.05717349,9.64847955 3.4430764,9.25338793 C3.59625874,9.09655816 3.7967329,8.99441148 4.01364917,8.96266658 L8.90942456,8.24618783 L11.1037141,3.81143286 C11.3486396,3.31642784 11.9484717,3.11369829 12.4434768,3.35862374 C12.6399667,3.45584575 12.7990639,3.61494294 12.8962859,3.81143286 L15.0905754,8.24618783 L19.9863508,8.96266658 C20.5328147,9.04263956 20.9109803,9.55046697 20.8310073,10.0969308 C20.7992624,10.3138471 20.6971157,10.5143213 20.540286,10.6675036 L17.0006561,14.1248117 L17.8321221,19.0023749 C17.9249299,19.5468059 17.558817,20.06339 17.0143859,20.1561978 C16.7982766,20.1930375 16.5760493,20.1578401 16.3819011,20.0560221 L12,17.758001 Z" id="Star"></path>
                    </g>
                </g>
            </g>
        </g>
    </g>
</svg>